<svg xmlns="http://www.w3.org/2000/svg" viewBox="0 0 32 32" width="32" height="32">
  <path d="M16 2C8 2 2 8 2 16c0 2 0.5 4 1.5 5.5C5 24 8 26 12 27c1 0.5 2 0.5 3 0.5s2 0 3-0.5c4-1 7-3 8.5-5.5C27.5 20 28 18 28 16c0-8-6-14-14-14z" fill="#4ade80"/>
  <path d="M16 4c-6.5 0-12 5.5-12 12 0 1.5 0.5 3 1 4.5C6.5 22 9 24 12 25c1 0.5 2 0.5 3 0.5s2 0 3-0.5c3-1 5.5-3 7-5.5 0.5-1.5 1-3 1-4.5 0-6.5-5.5-12-12-12z" fill="#22c55e"/>
  <path d="M16 8c-4 0-8 4-8 8 0 1 0.5 2 1 3 1 1.5 2.5 2.5 4 3 0.5 0.5 1 0.5 2 0.5s1.5 0 2-0.5c1.5-0.5 3-1.5 4-3 0.5-1 1-2 1-3 0-4-4-8-8-8z" fill="#16a34a"/>
</svg>